<svg width="40" height="40" viewBox="0 0 40 40" fill="none" xmlns="http://www.w3.org/2000/svg">
<circle r="19" transform="matrix(-1 0 0 1 20 20)" fill="#253659" stroke="#F0F0F0" stroke-width="2"/>
<path fill-rule="evenodd" clip-rule="evenodd" d="M35.3538 32.8172C38.2543 29.3464 40 24.877 40 20C40 8.9543 31.0457 0 20 0C8.9543 0 0 8.9543 0 20C0 24.877 1.74566 29.3464 4.64623 32.8172C6.27783 27.2612 10.8433 22.9602 16.5506 21.7061C14.6221 20.5378 13.3333 18.4194 13.3333 16C13.3333 12.3181 16.3181 9.33333 20 9.33333C23.6819 9.33333 26.6667 12.3181 26.6667 16C26.6667 18.4194 25.3779 20.5378 23.4494 21.7061C29.1567 22.9602 33.7222 27.2612 35.3538 32.8172Z" fill="#F0F0F0"/>
</svg>
